<?xml version="1.0" encoding="utf-8"?>
<!-- Generator: Adobe Illustrator 26.2.1, SVG Export Plug-In . SVG Version: 6.00 Build 0)  -->
<svg version="1.1" id="Layer_1" xmlns="http://www.w3.org/2000/svg" xmlns:xlink="http://www.w3.org/1999/xlink" x="0px" y="0px"
	 viewBox="0 0 500 500" style="enable-background:new 0 0 500 500;" xml:space="preserve">
<style type="text/css">
	.st0{fill:#F96332;}
</style>
<g>
	<path class="st0" d="M376.6,447.5v-349c0-0.1,0-0.2,0-0.3s0-0.2,0-0.3c0-0.4-0.1-0.8-0.1-1.1l0,0c-0.1-0.4-0.2-0.8-0.3-1.1
		c0-0.1-0.1-0.2-0.1-0.3l0,0c-0.1-0.3-0.3-0.6-0.4-1c0,0,0,0,0-0.1l0,0c-0.2-0.3-0.4-0.6-0.6-1c-0.1-0.1-0.1-0.1-0.2-0.2
		c-0.2-0.3-0.5-0.6-0.8-0.9L284.5,2.8c-0.3-0.3-0.5-0.5-0.9-0.8l-0.2-0.2c-0.3-0.2-0.6-0.4-1-0.6c0,0,0,0-0.1,0
		c-0.3-0.2-0.6-0.3-1-0.4c-0.1,0-0.2-0.1-0.3-0.1l0,0c-0.3-0.1-0.8-0.2-1.1-0.3l0,0c-0.3-0.1-0.8-0.1-1.1-0.1c-0.1,0-0.2,0-0.3,0
		c-0.1,0-0.2,0-0.3,0H54.3L36.4,0H9.6C4.7,0,0.7,4,0.7,8.9V491c0,2.4,1,4.6,2.6,6.3c1.7,1.7,4,2.6,6.3,2.6h358.1
		c2.4,0,4.6-1,6.3-2.6c1.6-1.6,2.6-3.9,2.6-6.2l0,0v-25.5V447.5z M346,89.5h-58.9V30.6L346,89.5z M358.6,482.1H18.5V17.9h250.6v80.6
		c0,2.4,1,4.6,2.6,6.3c1.6,1.7,4,2.6,6.3,2.6h80.6V482.1z"/>
	<path class="st0" d="M215.5,268.6c0-2.4-1-4.6-2.6-6.3c-1.7-1.7-4-2.6-6.3-2.6H72.3c-4.9,0-8.9,4-8.9,8.9c0,4.9,4,8.9,8.9,8.9
		h134.2c2.4,0,4.6-1,6.3-2.6C214.5,273.2,215.5,270.9,215.5,268.6z"/>
	<path class="st0" d="M117,304.3H90.2c-4.9,0-8.9,4-8.9,8.9c0,4.9,4,8.9,8.9,8.9H117c4.9,0,8.9-4,8.9-8.9
		C125.9,308.4,121.9,304.3,117,304.3z"/>
	<path class="st0" d="M152.8,304.3c-4.9,0-8.9,4-8.9,8.9c0,4.9,4,8.9,8.9,8.9h8.9c4.9,0,8.9-4,8.9-8.9c0-4.9-4-8.9-8.9-8.9H152.8z"
		/>
	<path class="st0" d="M188.6,313.3c0,2.4,1,4.6,2.6,6.3c1.7,1.7,4,2.6,6.3,2.6h80.6c4.9,0,8.9-4,8.9-8.9c0-4.9-4-8.9-8.9-8.9h-80.6
		C192.7,304.3,188.6,308.4,188.6,313.3z"/>
	<path class="st0" d="M254.9,350.9l-17.3,13c-13.3-16.6-34-25.3-55.2-23.2c-21.1,2.1-39.7,14.9-49.4,33.9c-9.7,19-8.9,41.5,1.8,59.9
		c10.7,18.3,30,29.9,51.3,30.9c21.2,0.9,41.5-9,53.8-26.4c12.2-17.4,14.8-39.8,6.9-59.4l18.9-14.2c4-3,4.7-8.6,1.8-12.6
		C264.4,348.7,258.9,348,254.9,350.9L254.9,350.9z M188.6,447.5c-15.3,0-29.6-7.8-37.9-20.8s-9.2-29.3-2.6-43.1
		c6.5-13.8,19.9-23.4,35.1-25.2s30.4,4.3,40,16.2L189.4,400L177,387.6c-3.5-3.5-9.1-3.5-12.7,0c-3.5,3.5-3.5,9.1,0,12.7l17.9,17.9
		c3.1,3.1,8.2,3.5,11.7,0.9l37.7-28.2c3.9,13.5,1.1,28-7.4,39.2C215.8,441,202.6,447.5,188.6,447.5L188.6,447.5z"/>
	<path class="st0" d="M233.3,268.6c0,2.4,1,4.6,2.6,6.3c1.7,1.7,4,2.6,6.3,2.6h62.7c4.9,0,8.9-4,8.9-8.9c0-4.9-4-8.9-8.9-8.9h-62.7
		C237.4,259.6,233.3,263.6,233.3,268.6z"/>
	<path class="st0" d="M287.1,393.9c-4.9,0-8.9,4-8.9,8.9c0,4.9,4,8.9,8.9,8.9h26.8c4.9,0,8.9-4,8.9-8.9c0-4.9-4-8.9-8.9-8.9H287.1z"
		/>
	<path class="st0" d="M278.2,438.6c0,2.4,1,4.6,2.6,6.3c1.7,1.7,4,2.6,6.3,2.6h44.7c4.9,0,8.9-4,8.9-8.9c0-4.9-4-8.9-8.9-8.9h-44.7
		C282.1,429.6,278.2,433.7,278.2,438.6z"/>
	<path class="st0" d="M280.3,161.4l-31.8-7.9l-16.1-32.1l0,0c-1.5-3-4.6-4.9-8-4.9h-89.5c-3.4,0-6.4,1.9-8,4.9l-16.2,32.5l-23.4,7.8
		c-3.6,1.2-6.1,4.6-6.1,8.5V206c0,2.4,1,4.6,2.6,6.3s4,2.6,6.3,2.6h19.4c2.5,7,7.7,12.7,14.6,15.7c6.9,3,14.6,3,21.5,0
		c6.9-3,12.1-8.7,14.6-15.7H208l0,0c2.5,7,7.7,12.7,14.6,15.7c6.9,3,14.6,3,21.5,0c6.9-3,12.1-8.7,14.6-15.7h19.4
		c2.4,0,4.6-1,6.3-2.6c1.7-1.7,2.6-4,2.6-6.3v-35.8C287.1,166,284.3,162.3,280.3,161.4L280.3,161.4z M227.8,152.1h-39.3v-17.9h30.3
		L227.8,152.1z M140.4,134.2h30.3v17.9h-39.3L140.4,134.2z M134.9,214.8c-3.6,0-6.9-2.1-8.3-5.6c-1.4-3.3-0.6-7.2,1.9-9.8
		s6.4-3.3,9.8-1.9c3.3,1.4,5.6,4.6,5.6,8.3C143.8,210.8,139.9,214.8,134.9,214.8z M233.3,214.8c-3.6,0-6.9-2.1-8.3-5.6
		c-1.4-3.3-0.6-7.2,1.9-9.8s6.4-3.3,9.8-1.9c3.3,1.4,5.6,4.6,5.6,8.3C242.3,210.8,238.3,214.8,233.3,214.8z M269.2,196.9h-10.5
		c-2.5-7-7.7-12.7-14.6-15.7c-6.9-3-14.6-3-21.5,0c-6.9,3-12.1,8.7-14.6,15.7h-47.9c-2.5-7-7.7-12.7-14.6-15.7c-6.9-3-14.6-3-21.5,0
		c-6.9,3-12.1,8.7-14.6,15.7H99v-20.4l19.3-6.4H241l28,7L269.2,196.9z"/>
</g>
</svg>
