<?xml version="1.0" encoding="utf-8"?>
<!-- Generator: Adobe Illustrator 26.2.1, SVG Export Plug-In . SVG Version: 6.00 Build 0)  -->
<svg version="1.1" id="Layer_1" xmlns="http://www.w3.org/2000/svg" xmlns:xlink="http://www.w3.org/1999/xlink" x="0px" y="0px"
	 viewBox="0 0 500 500" style="enable-background:new 0 0 500 500;" xml:space="preserve">
<style type="text/css">
	.st0{fill:#F96332;}
</style>
<g>
	<path class="st0" d="M280.8,114.6V43c0-23.4-18.6-43-41.9-43H42.5c-11.3,0.1-22.1,4.7-30,12.7S0.1,31.6,0,43v414
		c0.1,11.4,4.5,22.2,12.6,30.3c8,8.1,18.8,12.6,30.1,12.7H239c23.2,0,41.9-19.5,41.9-43v-92c31.4-3.5,60.3-18.8,81-42.9
		s31.5-55.1,30.4-87c-1.2-31.8-14.1-62-36.5-84.5C335.6,130.4,309.2,117.6,280.8,114.6L280.8,114.6z M151,285.8
		c4.3,11,10,21.2,17.1,30.5l-16.7,39.2c-1.5,3.6-1,7.8,1.4,10.8c2.4,3.1,6.3,4.6,10.1,3.9l63.5-11.3c10.7,3.8,22,6.1,33.2,6.7v21.6
		H21.2v-300h238.6v26.9c-40,2.3-76.4,23.8-97.9,57.8S136.3,248.3,151,285.8L151,285.8z M42.5,21.2h196.3c11.7,0,20.8,10,20.8,21.7
		v23H21.2V43c0.1-5.7,2.4-11.2,6.3-15.2C31.5,23.7,36.9,21.3,42.5,21.2L42.5,21.2z M238.9,478.7H42.5c-5.6-0.1-11.1-2.4-15.1-6.5
		s-6.2-9.5-6.3-15.2v-48.5h238.6V457C259.7,468.8,250.5,478.7,238.9,478.7L238.9,478.7z M267.2,344.5c-12.3,0-24.4-2.2-35.9-6.6
		c-1.8-0.7-3.8-0.9-5.6-0.5l-47.2,8.4l11.5-27c1.6-3.8,0.9-8.1-1.7-11.2c-7.5-8.8-13.5-18.7-17.7-29.6c-10.9-28-9.3-59.3,4.4-86
		s38-46.2,66.9-53.6c28.9-7.4,59.5-1.9,84.2,15s40.8,43.8,44.5,73.5c3.7,29.8-5.5,59.8-25.3,82.2
		C325.5,331.7,297.1,344.5,267.2,344.5L267.2,344.5z"/>
	<path class="st0" d="M267.4,192.4c4.9,0,9.6,2,13.1,5.5s5.4,8.3,5.4,13.2c0,5.9,4.7,10.7,10.6,10.7c5.8,0,10.6-4.8,10.6-10.7
		c0-9-3.1-17.6-8.5-24.7c-5.5-7.1-13.3-12.1-21.9-14.1v-9.5c0-5.9-4.7-10.7-10.6-10.7c-5.8,0-10.6,4.8-10.6,10.7V173
		c-12.2,3.9-21.7,13.4-25.7,25.5c-4,12.2-2,25.5,5.5,35.9c7.4,10.4,19.4,16.5,32.1,16.5c4.9,0,9.6,2,13.1,5.5s5.4,8.3,5.4,13.2
		c0,5-2,9.7-5.4,13.2c-3.5,3.5-8.2,5.5-13.1,5.5s-9.6-2-13.1-5.5s-5.4-8.3-5.4-13.2c0-5.9-4.7-10.7-10.6-10.7
		c-5.8,0-10.6,4.8-10.6,10.7c0,8.5,2.7,16.7,7.7,23.6c4.9,6.9,12,12,20,14.5v9.4c0,5.9,4.7,10.7,10.6,10.7c5.8,0,10.6-4.8,10.6-10.7
		v-8.6c12.7-3.1,23-12.2,27.8-24.5c4.6-12.3,3.1-26.1-4.4-37c-7.4-10.9-19.6-17.3-32.6-17.3c-6.6,0-12.8-3.6-16-9.4
		c-3.3-5.8-3.3-12.9,0-18.6C254.7,195.9,260.8,192.4,267.4,192.4L267.4,192.4z"/>
</g>
</svg>
