<?xml version="1.0" encoding="utf-8"?>
<!-- Generator: Adobe Illustrator 27.7.0, SVG Export Plug-In . SVG Version: 6.00 Build 0)  -->
<svg version="1.1" xmlns="http://www.w3.org/2000/svg" xmlns:xlink="http://www.w3.org/1999/xlink" x="0px" y="0px"
	 viewBox="0 0 30 30" style="enable-background:new 0 0 30 30;" xml:space="preserve">
<style type="text/css">
	.st0{fill:#FD7E14;}
</style>
<g id="Layer_2">
</g>
<g id="Layer_1">
	<path class="st0" d="M24.6,18.3c0.4,0,0.7-0.3,0.7-0.7v-2.8c0-0.4-0.3-0.7-0.7-0.7h-1.2c-0.8-3.7-3.9-6.6-7.8-6.8V5.2H19
		c0.4,0,0.7-0.3,0.7-0.7v-3c0-0.4-0.3-0.7-0.7-0.7h-3.3V0.7C15.7,0.3,15.4,0,15,0l0,0c-0.4,0-0.7,0.3-0.7,0.7v6.6
		c-3.8,0.3-7,3.2-7.8,6.8H5.4c-0.4,0-0.7,0.3-0.7,0.7v2.8c0,0.4,0.3,0.7,0.7,0.7h1v7.5h-1c-0.4,0-0.7,0.3-0.7,0.7v2.8
		C4.7,29.7,5,30,5.4,30h19.3c0.4,0,0.7-0.3,0.7-0.7v-2.8c0-0.4-0.3-0.7-0.7-0.7h-1v-7.5H24.6z M18.4,2.2v1.6h-2.7V2.2H18.4z M15,8.6
		c3.4,0,6.2,2.4,7,5.5H7.9C8.7,11,11.6,8.6,15,8.6z M6.1,15.5H24v1.5H6.1V15.5z M17.3,25.8v-7.4h1.8v7.5L17.3,25.8L17.3,25.8z
		 M12.7,18.3v7.5h-1.8v-7.5H12.7z M14.1,18.3h1.8v7.5h-1.8V18.3z M7.8,18.3h1.8v7.5H7.8C7.8,25.8,7.8,18.3,7.8,18.3z M24,28.6H6.1
		v-1.5H24V28.6z M22.2,25.8h-1.8v-7.4h1.8V25.8z"/>
</g>
</svg>
