<?xml version="1.0" encoding="utf-8"?>
<!-- Generator: Adobe Illustrator 26.2.1, SVG Export Plug-In . SVG Version: 6.00 Build 0)  -->
<svg version="1.1" id="Layer_1" xmlns="http://www.w3.org/2000/svg" xmlns:xlink="http://www.w3.org/1999/xlink" x="0px" y="0px"
	 viewBox="0 0 500 500" style="enable-background:new 0 0 500 500;" xml:space="preserve">
<style type="text/css">
	.st0{fill:#F96332;}
</style>
<g>
	<path class="st0" d="M403.8,389.1l-18.5-223.7c-0.4-3.6-2.1-7-4.8-9.4c-2.7-2.4-6.2-3.8-9.9-3.8H335v-36.1
		c-2.2-28.4-18.6-53.7-43.5-67.3c-25-13.6-55.1-13.6-80.1,0s-41.4,38.9-43.5,67.3v36.1h-40c-3.6,0-7.2,1.3-9.9,3.8
		c-2.7,2.4-4.4,5.8-4.8,9.4l-3.4,38l0,0c-4.5-1.2-9-1.8-13.6-1.9c-14.3,0-28.1,5.7-38.3,15.8c-10.1,10.1-15.8,23.9-15.8,38.3v14.6
		H25c-3.6,0-7,1.3-9.7,3.8c-2.6,2.4-4.2,5.8-4.5,9.4L0.2,410c-1,12.3,3,24.4,11.2,33.6c8.5,8.9,20.3,14,32.7,14.1h296.4
		c17.7-0.1,34.7-7.5,46.8-20.5C399.2,424.3,405.2,406.7,403.8,389.1L403.8,389.1z M197.1,116.1c1.7-18.2,12.4-34.3,28.6-43
		c16.1-8.6,35.5-8.6,51.6,0s26.8,24.8,28.6,43v36.1H197.2L197.1,116.1z M71.3,255.5c0-8.9,4.7-17.1,12.4-21.5s17.2-4.4,24.9,0
		s12.4,12.6,12.4,21.5v14.6H71.3V255.5z M44,428.5c-4.1,0-8-1.8-10.7-4.9c-3-2.9-4.5-7.1-3.9-11.2l9.3-113.1h112.6l9.3,113.1l0,0
		c0.6,4.1-0.9,8.3-3.9,11.2c-2.7,3.1-6.6,4.8-10.7,4.9H44z M365.7,417.3c-6.5,7.2-15.7,11.2-25.3,11.2H187.3c2-6,2.9-12.2,2.4-18.5
		L179,283.3c-0.4-3.6-2.1-7-4.8-9.4s-6.2-3.8-9.9-3.8h-14.1v-14.6l0,0c-0.1-12.7-4.6-24.9-12.7-34.6l3.4-39.5H357l17.5,210.1
		C375.4,401,372.2,410.3,365.7,417.3L365.7,417.3z"/>
</g>
</svg>
