<?xml version="1.0" encoding="utf-8"?>
<!-- Generator: Adobe Illustrator 26.2.1, SVG Export Plug-In . SVG Version: 6.00 Build 0)  -->
<svg version="1.1" id="Layer_1" xmlns="http://www.w3.org/2000/svg" xmlns:xlink="http://www.w3.org/1999/xlink" x="0px" y="0px"
	 viewBox="0 0 500 500" style="enable-background:new 0 0 500 500;" xml:space="preserve">
<style type="text/css">
	.st0{fill:#F96332;}
</style>
<g>
	<path class="st0" d="M216.4,233.8c18.3,0,33.3-15,33.3-33.3V34.1c0-18.3-15-33.3-33.3-33.3H83.3C65,0.8,50,15.8,50,34.1v166.4
		c0,18.3,15,33.3,33.3,33.3h55.5V267H61.1C55,267,50,272,50,278.1v55.5c0,6.1,5,11.1,11.1,11.1h77.7v144.2c0,6.1,5,11.1,11.1,11.1
		s11.1-5,11.1-11.1V344.7h77.7c6.1,0,11.1-5,11.1-11.1v-55.5c0-6.1-5-11.1-11.1-11.1H161v-33.3L216.4,233.8z M227.5,322.5H72.2
		v-33.3h155.3V322.5z M72.2,200.5V34.1c0-6.1,5-11.1,11.1-11.1h133.1c6.1,0,11.1,5,11.1,11.1v166.4c0,6.1-5,11.1-11.1,11.1H83.3
		C77.2,211.6,72.2,206.6,72.2,200.5z M155.4,133.9c21.6,0,38.8-17.2,38.8-38.8S177,56.3,155.4,56.3h-38.8c-6.1,0-11.1,5-11.1,11.1
		v99.8c0,6.1,5,11.1,11.1,11.1s11.1-5,11.1-11.1v-33.3L155.4,133.9z M172,95.1c0,9.4-7.2,16.6-16.6,16.6h-27.7V78.5h27.7
		C164.8,78.5,172,85.7,172,95.1z"/>
</g>
</svg>
