<?xml version="1.0" encoding="utf-8"?>
<!-- Generator: Adobe Illustrator 26.2.1, SVG Export Plug-In . SVG Version: 6.00 Build 0)  -->
<svg version="1.1" id="Layer_1" xmlns="http://www.w3.org/2000/svg" xmlns:xlink="http://www.w3.org/1999/xlink" x="0px" y="0px"
	 viewBox="0 0 500 500" style="enable-background:new 0 0 500 500;" xml:space="preserve">
<style type="text/css">
	.st0{fill:#F96332;}
</style>
<g>
	<path class="st0" d="M166.1,189.9V173c17.4-1.1,31.6-15.8,31.6-33.7c0-18.4-15.3-33.7-33.7-33.7h-16.3c-6.8,0-12.6-5.8-12.6-12.6
		c0-6.8,5.8-12.6,12.6-12.6H164c6.8,0,12.6,5.8,12.6,12.6h21.1c0-17.9-13.7-32.1-31.6-33.7V42.5H145v17.4
		c-17.4,1.1-31.6,15.8-31.6,33.7c0,18.4,15.3,33.7,33.7,33.7h16.3c6.8,0,12.6,5.8,12.6,12.6s-5.8,12.6-12.6,12.6h-16.3
		c-6.8,0-12.6-5.8-12.6-12.6h-21.1c0,17.9,13.7,32.1,31.6,33.7v16.8h21.1V189.9z"/>
	<path class="st0" d="M307.7,258.3c-0.5-5.3-4.7-8.9-10-10c-3.2-0.5-78.4-10-121.1,32.1c-3.7,3.7-6.8,7.9-10,12.1V233
		c59-5.8,105.3-55.8,105.3-116.4C271.9,51.9,219.2-0.2,155-0.2S38.1,52.5,38.1,116.7c0,60.5,46.3,110.6,105.3,116.4v61.1
		c-3.2-4.7-6.8-9.5-11.1-13.2c-42.1-42.1-117.3-32.7-121-32.1c-5.3,0.5-8.9,4.7-10,10C0.7,262-8.7,337.3,33.4,380
		c28.4,28.4,72.1,33.2,98.5,33.2c4.2,0,7.9,0,11.6-0.5v75.8c0,6.3,5.3,11.6,11.6,11.6s11.6-5.3,11.6-11.6v-76.3
		c3.2,0,6.8,0.5,10.5,0.5c26.3,0,70-4.7,98.5-33.2C318.2,337.3,308.2,261.5,307.7,258.3L307.7,258.3z M61.3,116.2
		c0-51.6,42.1-93.7,93.7-93.7s93.7,42.1,93.7,93.7s-42.1,93.7-93.7,93.7S61.3,168.3,61.3,116.2L61.3,116.2z M24.4,270.4
		c19.5-1.1,65.8-0.5,92.1,26.3c20.5,20.5,25.8,53.2,26.3,75.8l-51.1-51.1c-4.7-4.7-12.1-4.7-16.3,0s-4.7,12.1,0,16.3l51.1,51.1
		c-22.6-0.5-55.3-5.8-75.8-26.3C23.9,336.3,23.4,290.4,24.4,270.4z M259.3,363.1c-20.5,20.5-53.2,25.8-75.8,26.3l51.1-51.1
		c4.7-4.7,4.7-12.1,0-16.3c-4.7-4.2-12.1-4.7-16.3,0l-51.1,51.1c0.5-22.6,5.8-55.3,26.3-75.8c26.3-26.3,72.7-27.4,92.1-26.3
		C286.6,290.4,286.1,336.3,259.3,363.1z"/>
</g>
</svg>
