<?xml version="1.0" encoding="utf-8"?>
<!-- Generator: Adobe Illustrator 26.2.1, SVG Export Plug-In . SVG Version: 6.00 Build 0)  -->
<svg version="1.1" id="Layer_1" xmlns="http://www.w3.org/2000/svg" xmlns:xlink="http://www.w3.org/1999/xlink" x="0px" y="0px"
	 viewBox="0 0 500 500" style="enable-background:new 0 0 500 500;" xml:space="preserve">
<style type="text/css">
	.st0{fill:#F96332;}
</style>
<path class="st0" d="M185.6,0c-51.7,0-94,42.3-94,94c0,31.3,15.6,59.2,39.3,76.3C83.3,191.4,50,238.9,50,294.3v54.5
	c0.2,8,6.7,14.4,14.7,14.4s14.5-6.4,14.7-14.4v-54.5c0-58.7,46.5-105.6,105-106.2c0.4,0,0.8,0.1,1.1,0.1c0.4,0,0.8-0.1,1.1-0.1
	c58.5,0.6,105,47.6,105,106.2v54.5l0,0c0.2,8,6.7,14.4,14.7,14.4s14.5-6.4,14.7-14.4v-54.5c0-55.4-33.3-102.9-80.8-124
	c23.7-17.1,39.3-45,39.3-76.3C279.6,42.3,237.4,0,185.6,0L185.6,0z M185.6,29.4c35.9,0,64.6,28.7,64.6,64.6s-28.7,64.7-64.6,64.7
	S121,129.8,121,94C121,58.1,149.8,29.4,185.6,29.4z M186.1,321.4c-6.4-0.2-12.3,3.8-14.4,9.9l-16.1,46.2l-48.8,1
	c-6.3,0.1-11.7,4.2-13.7,10.1c-1.9,5.9,0.1,12.5,5.1,16.3l38.9,29.5l-14,46.6c-1.8,6,0.3,12.5,5.4,16.2c5.1,3.7,11.9,3.8,17.1,0.2
	l40.1-27.9l40.1,27.9c5.1,3.6,12,3.5,17-0.2c5.1-3.7,7.3-10.1,5.5-16.1L234,434.3l38.9-29.5c5-3.8,7-10.3,5.1-16.3
	s-7.4-10-13.7-10.2l-48.9-1l-16-46.1c-1.8-5.2-6.4-9-11.9-9.7C187.1,321.4,186.6,321.4,186.1,321.4L186.1,321.4z M185.6,380.9
	l5.5,15.8c2,5.8,7.5,9.8,13.6,9.9l16.8,0.3L208.1,417c-4.9,3.7-7,10.1-5.2,16l4.9,16.1l-13.8-9.6c-5-3.5-11.7-3.5-16.8,0l-13.8,9.6
	l4.9-16c1.8-5.9-0.3-12.3-5.2-16L149.8,407l16.7-0.3c6.1-0.1,11.6-4.1,13.6-9.9L185.6,380.9z"/>
</svg>
