<?xml version="1.0" encoding="utf-8"?>
<!-- Generator: Adobe Illustrator 26.2.1, SVG Export Plug-In . SVG Version: 6.00 Build 0)  -->
<svg version="1.1" id="Layer_1" xmlns="http://www.w3.org/2000/svg" xmlns:xlink="http://www.w3.org/1999/xlink" x="0px" y="0px"
	 viewBox="0 0 568.6 500" style="enable-background:new 0 0 568.6 500;" xml:space="preserve">
<style type="text/css">
	.st0{fill:#F96332;}
</style>
<g>
	<path class="st0" d="M443.4,288.6c6.1-16.5,9.3-34,9.3-51.8c0-82.2-66.9-149.1-149.1-149.1c-23.3,0-46.3,5.5-67,15.9
		c-20.7-10.4-43.7-15.9-67-15.9c-82.2,0-149.1,66.9-149.1,149.1c0,17.8,3.1,35.2,9.2,51.8L0.4,393.8c-1.2,4.3,0.2,8.8,3.5,11.8
		c2.2,1.9,4.9,2.9,7.7,2.9c1.5,0,3-0.3,4.4-0.8l89.3-36.2c19.9,9.5,42,14.5,64.3,14.5c23.3,0,46.3-5.5,67-15.9
		c20.7,10.4,43.7,15.9,67,15.9c22.2,0,44.3-5,64.3-14.5l89.3,36.2c1.4,0.6,2.9,0.8,4.4,0.8c2.8,0,5.6-1,7.7-2.9
		c3.3-2.9,4.6-7.5,3.5-11.8L443.4,288.6z M169.5,362.7c-20.6,0-40.2-4.8-58.4-14.3c-3.2-1.7-6.9-1.7-10-0.4l-72,29.2L53,291.1
		c0.7-2.5,0.5-5.1-0.4-7.4c-6-14.9-9-30.7-9-46.9c0-69.4,56.5-125.9,125.9-125.9c14.8,0,29.4,2.6,43.2,7.6c-0.5,0.4-1.1,0.8-1.6,1.3
		c-0.5,0.4-0.9,0.7-1.4,1.1c-0.9,0.7-1.8,1.5-2.6,2.2c-0.3,0.3-0.6,0.5-0.9,0.8c-1.2,1-2.3,2-3.4,3.1c-0.3,0.3-0.7,0.6-1,0.9
		c-0.8,0.8-1.6,1.5-2.4,2.3c-0.4,0.4-0.9,0.9-1.3,1.3c-0.7,0.7-1.3,1.3-2,2c-0.4,0.5-0.9,0.9-1.3,1.4c-0.6,0.7-1.2,1.3-1.8,2
		c-0.4,0.5-0.9,1-1.3,1.5c-0.6,0.7-1.2,1.4-1.8,2.1c-0.4,0.5-0.8,0.9-1.2,1.4c-0.6,0.8-1.3,1.5-1.9,2.3c-0.3,0.4-0.7,0.8-1,1.3
		c-0.9,1.2-1.8,2.4-2.7,3.6c-0.2,0.3-0.4,0.5-0.5,0.8c-0.7,1-1.4,2-2.1,3c-0.3,0.5-0.6,1-1,1.5c-0.5,0.8-1,1.6-1.6,2.4
		c-0.3,0.5-0.7,1.1-1,1.6c-0.5,0.8-0.9,1.5-1.4,2.3c-0.3,0.6-0.7,1.1-1,1.7c-0.5,0.8-0.9,1.6-1.3,2.4c-0.3,0.6-0.6,1.1-0.9,1.7
		c-0.4,0.8-0.9,1.7-1.3,2.5c-0.3,0.5-0.5,1-0.8,1.5c-0.5,1.1-1,2.1-1.6,3.2c-0.1,0.3-0.3,0.6-0.4,0.9c-0.6,1.4-1.2,2.8-1.8,4.1
		c-0.2,0.5-0.4,0.9-0.6,1.4c-0.4,0.9-0.8,1.9-1.1,2.9c-0.2,0.6-0.4,1.1-0.6,1.7c-0.3,0.9-0.7,1.7-1,2.6c-0.2,0.6-0.4,1.2-0.6,1.8
		c-0.3,0.9-0.6,1.7-0.9,2.6c-0.2,0.6-0.4,1.2-0.6,1.8c-0.3,0.9-0.5,1.8-0.8,2.8c-0.2,0.6-0.3,1.1-0.5,1.7c-0.3,1.1-0.5,2.1-0.8,3.2
		c-0.1,0.4-0.2,0.9-0.3,1.3c-0.4,1.5-0.7,3-1,4.5c-0.1,0.3-0.1,0.7-0.2,1.1c-0.2,1.2-0.5,2.3-0.7,3.5c-0.1,0.6-0.2,1.1-0.3,1.7
		c-0.2,1-0.3,2-0.5,3c-0.1,0.6-0.2,1.2-0.2,1.8c-0.1,1-0.2,1.9-0.3,2.9c-0.1,0.6-0.1,1.2-0.2,1.9c-0.1,1-0.2,1.9-0.2,2.9
		c-0.1,0.6-0.1,1.2-0.1,1.8c-0.1,1.1-0.1,2.1-0.2,3.2c0,0.5-0.1,1-0.1,1.5c-0.1,1.6-0.1,3.2-0.1,4.7s0,3.2,0.1,4.7
		c0,0.5,0,1,0.1,1.5c0,1.1,0.1,2.1,0.2,3.2c0,0.6,0.1,1.2,0.1,1.8c0.1,1,0.2,2,0.3,2.9c0.1,0.6,0.1,1.2,0.2,1.8
		c0.1,1,0.2,1.9,0.3,2.9c0.1,0.6,0.2,1.2,0.2,1.8c0.1,1,0.3,2,0.5,3c0.1,0.5,0.2,1.1,0.3,1.6c0.2,1.2,0.4,2.5,0.7,3.7
		c0.1,0.3,0.1,0.6,0.2,0.9c0.3,1.5,0.7,3,1,4.6c0.1,0.4,0.2,0.8,0.3,1.1c0.3,1.1,0.6,2.3,0.9,3.4c0.1,0.5,0.3,1,0.4,1.6
		c0.3,1,0.6,1.9,0.8,2.9c0.2,0.6,0.3,1.1,0.5,1.7c0.3,0.9,0.6,1.9,0.9,2.8c0.2,0.6,0.4,1.1,0.6,1.7c0.3,0.9,0.7,1.9,1,2.8
		c0.2,0.5,0.4,1,0.6,1.5c0.4,1.1,0.8,2.1,1.3,3.2c0.2,0.4,0.3,0.7,0.5,1.1c0.6,1.4,1.2,2.9,1.9,4.3c0.1,0.1,0.1,0.2,0.2,0.4
		c0.6,1.3,1.2,2.5,1.8,3.8c0.2,0.4,0.4,0.8,0.7,1.3c0.5,0.9,1,1.9,1.5,2.8c0.3,0.5,0.5,1,0.8,1.4c0.5,0.9,1,1.7,1.5,2.6
		c0.3,0.5,0.6,1,0.9,1.5c0.5,0.9,1,1.7,1.6,2.6c0.3,0.5,0.6,0.9,0.9,1.4c0.6,0.9,1.2,1.8,1.8,2.7c0.3,0.4,0.5,0.8,0.8,1.1
		c0.8,1.2,1.7,2.4,2.5,3.6c0,0.1,0.1,0.1,0.1,0.2c0.9,1.3,1.9,2.5,2.8,3.7c0.2,0.3,0.5,0.6,0.7,0.9c0.7,0.9,1.4,1.8,2.1,2.7
		c0.3,0.4,0.7,0.8,1,1.2c0.7,0.8,1.3,1.5,2,2.3c0.4,0.4,0.8,0.9,1.1,1.3c0.7,0.7,1.3,1.5,2,2.2c0.4,0.4,0.8,0.8,1.2,1.2
		c0.7,0.7,1.4,1.5,2.2,2.2c0.4,0.4,0.7,0.7,1.1,1.1c0.9,0.8,1.7,1.7,2.6,2.5c0.2,0.2,0.5,0.5,0.7,0.7c1.1,1,2.3,2.1,3.5,3.1
		c0.2,0.2,0.5,0.4,0.7,0.6c0.9,0.8,1.9,1.6,2.9,2.4c0.4,0.3,0.8,0.7,1.3,1c0.6,0.4,1.1,0.9,1.7,1.3
		C198.9,360.1,184.3,362.7,169.5,362.7L169.5,362.7z M258,326.3c-0.4,0.4-0.8,0.8-1.3,1.2c-0.6,0.5-1.1,1.1-1.7,1.6
		c-0.4,0.4-0.9,0.8-1.3,1.2c-0.6,0.5-1.1,1-1.7,1.5c-0.5,0.4-0.9,0.8-1.4,1.2c-0.6,0.5-1.1,1-1.7,1.4c-0.5,0.4-1,0.8-1.5,1.2
		c-0.6,0.5-1.2,0.9-1.8,1.4c-0.5,0.4-1,0.8-1.5,1.1c-0.6,0.4-1.2,0.9-1.8,1.3c-0.5,0.4-1,0.7-1.6,1.1s-1.2,0.8-1.8,1.3
		c-0.5,0.4-1.1,0.7-1.6,1c-0.3,0.2-0.6,0.3-0.8,0.5c-0.3-0.2-0.6-0.3-0.8-0.5c-0.5-0.3-1.1-0.7-1.6-1c-0.6-0.4-1.2-0.8-1.8-1.3
		c-0.5-0.4-1-0.7-1.6-1.1s-1.2-0.9-1.8-1.3c-0.5-0.4-1-0.8-1.5-1.1c-0.6-0.4-1.2-0.9-1.7-1.4c-0.5-0.4-1-0.8-1.5-1.2
		c-0.6-0.5-1.1-0.9-1.7-1.4c-0.5-0.4-1-0.8-1.4-1.2c-0.6-0.5-1.1-1-1.7-1.5c-0.5-0.4-0.9-0.8-1.4-1.2c-0.6-0.5-1.1-1-1.6-1.6
		c-0.4-0.4-0.9-0.8-1.3-1.3c-0.5-0.5-1.1-1.1-1.6-1.6c-0.4-0.4-0.8-0.8-1.2-1.3c-0.5-0.6-1.1-1.2-1.6-1.8c-0.4-0.4-0.8-0.8-1.1-1.2
		c-0.6-0.6-1.1-1.3-1.7-2c-0.3-0.4-0.6-0.7-1-1.1c-0.7-0.8-1.4-1.7-2-2.5c-0.2-0.2-0.3-0.4-0.5-0.6c-0.8-1.1-1.6-2.1-2.4-3.2
		c-0.2-0.3-0.5-0.7-0.7-1c-0.5-0.8-1.1-1.5-1.6-2.3c-0.3-0.4-0.6-0.9-0.9-1.3c-0.5-0.7-0.9-1.4-1.3-2.1c-0.3-0.5-0.6-1-0.9-1.5
		c-0.4-0.7-0.8-1.3-1.2-2c-0.3-0.5-0.6-1-0.9-1.5c-0.4-0.7-0.8-1.3-1.1-2c-0.3-0.5-0.6-1.1-0.9-1.6c-0.3-0.7-0.7-1.3-1-2
		c-0.3-0.6-0.5-1.1-0.8-1.7c-0.3-0.7-0.6-1.3-0.9-2c-0.3-0.6-0.5-1.1-0.8-1.7c-0.3-0.7-0.6-1.3-0.9-2c-0.2-0.6-0.5-1.1-0.7-1.7
		c-0.3-0.7-0.5-1.3-0.8-2c-0.2-0.6-0.5-1.2-0.7-1.8c-0.3-0.7-0.5-1.4-0.8-2c-0.2-0.6-0.4-1.2-0.6-1.8c-0.2-0.7-0.5-1.4-0.7-2.1
		c-0.2-0.6-0.4-1.2-0.6-1.8c-0.2-0.7-0.4-1.4-0.6-2.1c-0.2-0.6-0.3-1.2-0.5-1.8c-0.2-0.7-0.4-1.4-0.5-2.1c-0.2-0.6-0.3-1.2-0.4-1.8
		c-0.2-0.7-0.3-1.4-0.5-2.2c-0.1-0.6-0.3-1.2-0.4-1.8c-0.1-0.7-0.3-1.5-0.4-2.2c-0.1-0.6-0.2-1.2-0.3-1.8c-0.1-0.8-0.2-1.5-0.3-2.3
		c-0.1-0.6-0.2-1.2-0.3-1.8c-0.1-0.8-0.2-1.5-0.3-2.3c-0.1-0.6-0.1-1.2-0.2-1.8c-0.1-0.8-0.1-1.6-0.2-2.5c0-0.6-0.1-1.1-0.1-1.6
		c-0.1-0.9-0.1-1.9-0.1-2.8c0-0.5-0.1-0.9-0.1-1.4c0-1.4-0.1-2.8-0.1-4.2s0-2.8,0.1-4.2c0-0.5,0.1-0.9,0.1-1.4
		c0-0.9,0.1-1.9,0.1-2.8c0-0.5,0.1-1.1,0.1-1.6c0.1-0.8,0.1-1.6,0.2-2.5c0.1-0.6,0.1-1.2,0.2-1.8c0.1-0.8,0.2-1.6,0.3-2.3
		c0.1-0.6,0.2-1.2,0.3-1.8c0.1-0.8,0.2-1.5,0.3-2.3c0.1-0.6,0.2-1.2,0.3-1.8c0.1-0.7,0.3-1.5,0.4-2.2c0.1-0.6,0.3-1.2,0.4-1.8
		c0.2-0.7,0.3-1.4,0.5-2.2c0.1-0.6,0.3-1.2,0.4-1.8c0.2-0.7,0.4-1.4,0.5-2.1c0.2-0.6,0.3-1.2,0.5-1.8c0.2-0.7,0.4-1.4,0.6-2.1
		c0.2-0.6,0.4-1.2,0.6-1.8c0.2-0.7,0.4-1.4,0.7-2.1c0.2-0.6,0.4-1.2,0.6-1.8c0.2-0.7,0.5-1.4,0.8-2c0.2-0.6,0.4-1.2,0.7-1.8
		c0.3-0.7,0.5-1.3,0.8-2c0.2-0.6,0.5-1.1,0.7-1.7c0.3-0.7,0.6-1.3,0.9-2c0.3-0.6,0.5-1.1,0.8-1.7c0.3-0.7,0.6-1.3,1-2
		c0.3-0.6,0.5-1.1,0.8-1.7c0.3-0.7,0.7-1.3,1-2c0.3-0.5,0.6-1.1,0.9-1.6c0.4-0.7,0.7-1.3,1.1-2c0.3-0.5,0.6-1,0.9-1.5
		c0.4-0.7,0.8-1.3,1.2-2c0.3-0.5,0.6-1,0.9-1.5c0.4-0.7,0.9-1.4,1.4-2.1c0.3-0.4,0.6-0.9,0.9-1.3c0.5-0.8,1.1-1.6,1.6-2.3
		c0.2-0.3,0.5-0.7,0.7-1c0.8-1.1,1.6-2.2,2.4-3.2c0.2-0.2,0.3-0.4,0.5-0.6c0.7-0.9,1.4-1.7,2.1-2.6c0.3-0.4,0.6-0.7,0.9-1.1
		c0.6-0.7,1.1-1.3,1.7-2c0.4-0.4,0.8-0.8,1.1-1.2c0.5-0.6,1.1-1.2,1.6-1.8c0.4-0.4,0.8-0.8,1.2-1.3c0.5-0.6,1.1-1.1,1.6-1.6
		c0.4-0.4,0.9-0.8,1.3-1.3c0.5-0.5,1.1-1,1.6-1.6c0.4-0.4,0.9-0.8,1.4-1.2c0.6-0.5,1.1-1,1.7-1.5c0.5-0.4,0.9-0.8,1.4-1.2
		c0.6-0.5,1.1-1,1.7-1.4c0.5-0.4,1-0.8,1.5-1.2c0.6-0.5,1.2-0.9,1.8-1.4c0.5-0.4,1-0.8,1.5-1.1c0.6-0.4,1.2-0.9,1.8-1.3
		c0.5-0.4,1-0.7,1.6-1.1c0.6-0.4,1.2-0.8,1.8-1.3c0.5-0.3,1.1-0.7,1.6-1c0.3-0.2,0.6-0.4,0.8-0.5c0.3,0.2,0.6,0.3,0.8,0.5
		c0.5,0.3,1.1,0.7,1.6,1c0.6,0.4,1.2,0.8,1.8,1.3c0.5,0.4,1,0.7,1.6,1.1c0.6,0.4,1.2,0.9,1.8,1.3c0.5,0.4,1,0.8,1.5,1.1
		c0.6,0.5,1.2,0.9,1.8,1.4c0.5,0.4,1,0.8,1.5,1.2c0.6,0.5,1.2,1,1.7,1.4s0.9,0.8,1.4,1.2c0.6,0.5,1.1,1,1.7,1.5
		c0.4,0.4,0.9,0.8,1.3,1.2c0.6,0.5,1.1,1.1,1.7,1.6c0.4,0.4,0.9,0.8,1.3,1.2c0.6,0.6,1.1,1.1,1.7,1.7c0.4,0.4,0.8,0.8,1.2,1.2
		c0.6,0.6,1.1,1.2,1.7,1.8c0.4,0.4,0.7,0.8,1.1,1.2c0.6,0.7,1.2,1.4,1.8,2.1c0.3,0.3,0.6,0.7,0.9,1c0.8,0.9,1.5,1.8,2.2,2.8
		c0.1,0.1,0.2,0.3,0.3,0.4c0.8,1.1,1.6,2.2,2.4,3.2c0.2,0.3,0.4,0.5,0.6,0.8c0.6,0.8,1.2,1.7,1.8,2.5c0.3,0.4,0.5,0.8,0.8,1.2
		c0.5,0.7,1,1.4,1.4,2.2c0.3,0.5,0.6,0.9,0.8,1.4c0.4,0.7,0.8,1.4,1.3,2.1c0.3,0.5,0.6,1,0.8,1.5c0.4,0.7,0.8,1.4,1.1,2
		c0.3,0.5,0.6,1,0.8,1.6c0.4,0.7,0.7,1.3,1.1,2c0.3,0.5,0.5,1.1,0.8,1.6c0.3,0.7,0.7,1.3,1,2c0.3,0.5,0.5,1.1,0.8,1.7
		c0.3,0.7,0.6,1.4,0.9,2c0.2,0.6,0.5,1.1,0.7,1.7c0.3,0.7,0.6,1.4,0.8,2.1c0.2,0.6,0.4,1.1,0.7,1.7c0.3,0.7,0.5,1.4,0.8,2.1
		c0.2,0.6,0.4,1.2,0.6,1.8c0.2,0.7,0.5,1.4,0.7,2.1c0.2,0.6,0.4,1.2,0.6,1.8c0.2,0.7,0.4,1.4,0.6,2.1c0.2,0.6,0.3,1.2,0.5,1.8
		c0.2,0.7,0.4,1.4,0.6,2.2c0.2,0.6,0.3,1.2,0.4,1.8c0.2,0.7,0.3,1.5,0.5,2.2c0.1,0.6,0.3,1.2,0.4,1.8c0.2,0.7,0.3,1.5,0.4,2.2
		c0.1,0.6,0.2,1.2,0.3,1.8c0.1,0.8,0.2,1.5,0.3,2.3c0.1,0.6,0.2,1.2,0.3,1.8c0.1,0.8,0.2,1.6,0.3,2.4c0.1,0.6,0.1,1.2,0.2,1.7
		c0.1,0.8,0.1,1.7,0.2,2.5c0,0.5,0.1,1.1,0.1,1.6c0.1,0.9,0.1,1.9,0.1,2.8c0,0.5,0.1,0.9,0.1,1.4c0,1.4,0.1,2.8,0.1,4.2
		s0,2.8-0.1,4.2c0,0.5,0,0.9-0.1,1.4c0,0.9-0.1,1.9-0.1,2.8c0,0.5-0.1,1.1-0.1,1.6c-0.1,0.8-0.1,1.7-0.2,2.5
		c-0.1,0.6-0.1,1.2-0.2,1.7c-0.1,0.8-0.2,1.6-0.3,2.4c-0.1,0.6-0.2,1.2-0.3,1.8c-0.1,0.8-0.2,1.5-0.3,2.3c-0.1,0.6-0.2,1.2-0.3,1.8
		c-0.1,0.7-0.3,1.5-0.4,2.2c-0.1,0.6-0.3,1.2-0.4,1.8c-0.2,0.7-0.3,1.5-0.5,2.2c-0.1,0.6-0.3,1.2-0.4,1.8c-0.2,0.7-0.4,1.4-0.6,2.2
		c-0.2,0.6-0.3,1.2-0.5,1.8c-0.2,0.7-0.4,1.4-0.6,2.1c-0.2,0.6-0.4,1.2-0.6,1.8c-0.2,0.7-0.4,1.4-0.7,2.1c-0.2,0.6-0.4,1.2-0.6,1.8
		c-0.2,0.7-0.5,1.4-0.8,2.1c-0.2,0.6-0.4,1.1-0.7,1.7c-0.3,0.7-0.5,1.4-0.8,2.1c-0.2,0.6-0.5,1.1-0.7,1.7c-0.3,0.7-0.6,1.4-0.9,2
		s-0.5,1.1-0.8,1.7c-0.3,0.7-0.6,1.3-1,2c-0.3,0.5-0.5,1.1-0.8,1.6c-0.3,0.7-0.7,1.3-1.1,2c-0.3,0.5-0.5,1-0.8,1.5
		c-0.4,0.7-0.8,1.4-1.1,2c-0.3,0.5-0.6,1-0.8,1.5c-0.4,0.7-0.8,1.4-1.3,2.1c-0.3,0.5-0.6,0.9-0.8,1.4c-0.5,0.7-0.9,1.4-1.4,2.2
		c-0.3,0.4-0.5,0.8-0.8,1.2c-0.6,0.8-1.2,1.7-1.8,2.5c-0.2,0.3-0.4,0.5-0.6,0.8c-0.8,1.1-1.6,2.2-2.4,3.3c-0.1,0.1-0.2,0.2-0.3,0.4
		c-0.7,0.9-1.5,1.9-2.2,2.8c-0.3,0.3-0.6,0.7-0.9,1c-0.6,0.7-1.2,1.4-1.8,2.1c-0.3,0.4-0.7,0.8-1.1,1.2c-0.6,0.6-1.1,1.2-1.7,1.8
		c-0.4,0.4-0.8,0.8-1.2,1.2C259.1,325.2,258.6,325.8,258,326.3L258,326.3z M371.6,347.9c-1.4-0.6-2.9-0.8-4.4-0.8
		c-1.9,0-3.7,0.4-5.4,1.3c-17.9,9.4-38.1,14.3-58.4,14.3c-14.8,0-29.4-2.6-43.2-7.6c0.6-0.4,1.1-0.9,1.6-1.3c0.4-0.3,0.9-0.7,1.3-1
		c0.9-0.8,1.8-1.5,2.7-2.3c0.3-0.2,0.6-0.5,0.9-0.7c1.2-1,2.3-2,3.5-3.1c0.3-0.3,0.6-0.6,0.9-0.9c0.8-0.8,1.6-1.5,2.4-2.3
		c0.4-0.4,0.8-0.8,1.3-1.3c0.7-0.7,1.3-1.3,2-2c0.4-0.5,0.9-0.9,1.3-1.4c0.6-0.7,1.2-1.3,1.9-2c0.4-0.5,0.9-1,1.3-1.4
		c0.6-0.7,1.2-1.4,1.8-2.1c0.4-0.5,0.8-0.9,1.2-1.4c0.6-0.8,1.3-1.5,1.9-2.3c0.3-0.4,0.7-0.8,1-1.3c0.9-1.2,1.8-2.4,2.7-3.6
		c0.2-0.3,0.4-0.5,0.6-0.8c0.7-1,1.4-2,2.1-2.9c0.3-0.5,0.7-1,1-1.5c0.5-0.8,1-1.6,1.5-2.4c0.3-0.5,0.7-1.1,1-1.6
		c0.5-0.8,0.9-1.5,1.4-2.3c0.3-0.6,0.7-1.1,1-1.7c0.4-0.8,0.9-1.5,1.3-2.3c0.3-0.6,0.6-1.1,0.9-1.7c0.4-0.8,0.9-1.7,1.3-2.5
		c0.3-0.5,0.5-1,0.8-1.6c0.5-1,1-2.1,1.5-3.1c0.2-0.3,0.3-0.7,0.5-1c0.6-1.4,1.2-2.7,1.8-4.1c0.2-0.5,0.4-1,0.6-1.5
		c0.4-0.9,0.8-1.9,1.1-2.8c0.2-0.6,0.4-1.2,0.7-1.7c0.3-0.9,0.6-1.7,0.9-2.6c0.2-0.6,0.4-1.2,0.6-1.8c0.3-0.9,0.6-1.7,0.9-2.6
		c0.2-0.6,0.4-1.2,0.6-1.8c0.3-0.9,0.5-1.8,0.8-2.7c0.2-0.6,0.3-1.2,0.5-1.7c0.3-1,0.5-2.1,0.8-3.1c0.1-0.4,0.2-0.9,0.3-1.3
		c0.4-1.5,0.7-3,1-4.5c0.1-0.4,0.1-0.7,0.2-1.1c0.2-1.2,0.5-2.3,0.7-3.5c0.1-0.6,0.2-1.1,0.3-1.7c0.2-1,0.3-2,0.4-2.9
		c0.1-0.6,0.2-1.2,0.2-1.8c0.1-0.9,0.2-1.9,0.3-2.9c0.1-0.6,0.1-1.3,0.2-1.9c0.1-1,0.2-1.9,0.2-2.9c0-0.6,0.1-1.2,0.1-1.8
		c0.1-1.1,0.1-2.1,0.2-3.2c0-0.5,0.1-1,0.1-1.5c0.1-1.6,0.1-3.1,0.1-4.7c0-1.6,0-3.2-0.1-4.7c0-0.5,0-1-0.1-1.5
		c0-1.1-0.1-2.1-0.2-3.2c0-0.6-0.1-1.2-0.1-1.8c-0.1-1-0.2-1.9-0.2-2.9c-0.1-0.6-0.1-1.3-0.2-1.9c-0.1-1-0.2-1.9-0.3-2.9
		c-0.1-0.6-0.2-1.2-0.2-1.8c-0.1-1-0.3-2-0.5-3c-0.1-0.6-0.2-1.1-0.3-1.7c-0.2-1.2-0.4-2.4-0.7-3.5c-0.1-0.3-0.1-0.7-0.2-1
		c-0.3-1.5-0.6-3-1-4.5c-0.1-0.4-0.2-0.9-0.3-1.3c-0.3-1.1-0.5-2.1-0.8-3.2c-0.2-0.6-0.3-1.1-0.5-1.7c-0.3-0.9-0.5-1.9-0.8-2.8
		c-0.2-0.6-0.4-1.2-0.6-1.8c-0.3-0.9-0.6-1.8-0.9-2.7c-0.2-0.6-0.4-1.2-0.6-1.8c-0.3-0.9-0.6-1.8-1-2.7c-0.2-0.6-0.4-1.1-0.6-1.7
		c-0.4-1-0.8-1.9-1.2-2.9c-0.2-0.5-0.4-0.9-0.6-1.4c-0.6-1.4-1.2-2.8-1.8-4.2c-0.1-0.3-0.3-0.6-0.4-0.8c-0.5-1.1-1-2.2-1.6-3.3
		c-0.3-0.5-0.5-1-0.8-1.5c-0.4-0.9-0.9-1.7-1.3-2.6c-0.3-0.5-0.6-1.1-0.9-1.6c-0.4-0.8-0.9-1.6-1.4-2.4c-0.3-0.6-0.6-1.1-1-1.6
		c-0.5-0.8-0.9-1.6-1.4-2.3c-0.3-0.5-0.7-1.1-1-1.6c-0.5-0.8-1.1-1.6-1.6-2.4c-0.3-0.5-0.6-1-0.9-1.4c-0.7-1-1.4-2.1-2.2-3.1
		c-0.2-0.2-0.3-0.5-0.5-0.7c-0.9-1.2-1.8-2.4-2.7-3.6c-0.3-0.4-0.6-0.8-1-1.2c-0.6-0.8-1.3-1.6-1.9-2.4c-0.4-0.5-0.8-0.9-1.2-1.4
		c-0.6-0.7-1.2-1.4-1.8-2.1c-0.4-0.5-0.8-1-1.3-1.4c-0.6-0.7-1.2-1.4-1.9-2c-0.4-0.5-0.9-0.9-1.3-1.4c-0.7-0.7-1.3-1.4-2-2
		c-0.4-0.4-0.8-0.8-1.3-1.3c-0.8-0.8-1.6-1.5-2.4-2.3c-0.3-0.3-0.6-0.6-1-0.9c-1.1-1-2.3-2.1-3.4-3.1c-0.3-0.3-0.6-0.5-0.9-0.8
		c-0.9-0.8-1.8-1.5-2.7-2.2c-0.4-0.4-0.9-0.7-1.4-1.1s-1.1-0.9-1.6-1.3c13.8-5,28.4-7.6,43.2-7.6c69.4,0,125.9,56.5,125.9,125.9
		c0,16.2-3,32-9,46.9c-0.9,2.4-1.1,5-0.4,7.4l23.9,86.1L371.6,347.9z"/>
</g>
</svg>
