<?xml version="1.0" encoding="utf-8"?>
<!-- Generator: Adobe Illustrator 26.2.1, SVG Export Plug-In . SVG Version: 6.00 Build 0)  -->
<svg version="1.1" id="Layer_1" xmlns="http://www.w3.org/2000/svg" xmlns:xlink="http://www.w3.org/1999/xlink" x="0px" y="0px"
	 viewBox="0 0 700 700" style="enable-background:new 0 0 700 700;" xml:space="preserve">
<style type="text/css">
	.st0{fill-rule:evenodd;clip-rule:evenodd;fill:#F96332;}
</style>
<g>
	<path class="st0" d="M549.8,379H22.4v-44.5h98.7l0,0h0.1h109.9l0,0l0,0h110.5l0,0l0,0h109.9h0.1l0,0h98.1L549.8,379z M521.9,609.3
		h-291V440c0-6.2-5-11.2-11.2-11.2h-110c-6.2,0-11.2,5-11.2,11.2v169.3H50.7V401.4h471.2V609.3z M120.9,609.3h87.5V451.2h-87.5
		C120.9,451.2,120.9,609.3,120.9,609.3z M74.6,209.1h68.3l-30.2,103H28.5L74.6,209.1z M78.3,153.4h95.3c4.3,0,8.2-2.5,10.1-6.3
		c9.2-19,23.5-35.1,41.3-46.6c18.3-11.7,39.6-17.9,61.4-17.9c21.9,0,43.1,6.2,61.4,17.9c17.9,11.4,32.1,27.5,41.3,46.6
		c1.9,3.9,5.8,6.3,10.1,6.3h95.3v33.3H78.3V153.4z M460.1,312.1l-30.2-103h66.6l47,103H460.1z M351.4,312.1l-15.9-103h71.1l30.2,103
		H351.4z M260.2,209.1h52.6l15.9,103h-84.4L260.2,209.1z M136.1,312.1l30.2-103h71.1l-15.9,103H136.1z M572.2,323c0-0.2,0-0.3,0-0.5
		c0-0.3-0.1-0.6-0.1-0.9c0-0.1,0-0.2-0.1-0.4c-0.2-0.9-0.4-1.7-0.8-2.5v-0.1l-54.4-119.2c0.1-0.5,0.1-1,0.1-1.6v-55.7
		c0-6.2-5-11.2-11.2-11.2h-99.6c-11-20-26.8-37-46.2-49.4C338,67.4,312.5,60,286.3,60s-51.6,7.4-73.6,21.5
		c-19.2,12.5-35,29.5-46,49.5H67c-6.2,0-11.2,5-11.2,11.2v54L1,318.8c0,0,0,0,0,0.1c-0.2,0.4-0.3,0.8-0.5,1.2c0,0,0,0,0,0.1
		c-0.1,0.4-0.2,0.8-0.3,1.2c0,0.1,0,0.3-0.1,0.4c0,0.3-0.1,0.6-0.1,0.9c0,0.2,0,0.3,0,0.5c0,0.1,0,0.2,0,0.3v66.9
		c0,6.2,5,11.2,11.2,11.2h17.1v219.1c0,6.2,5,11.2,11.2,11.2h493.6c6.2,0,11.2-5,11.2-11.2V401.4H561c6.2,0,11.2-5,11.2-11.2v-66.9
		C572.2,323.2,572.2,323.1,572.2,323L572.2,323z M297.3,545h160.9v-93.8H297.3V545z M286.1,567.4h183.4c6.2,0,11.2-5,11.2-11.2V440
		c0-6.2-5-11.2-11.2-11.2H286.1c-6.2,0-11.2,5-11.2,11.2v116.2C274.9,562.4,279.9,567.4,286.1,567.4L286.1,567.4z M184.9,514.2
		c-6.2,0-11.2,5-11.2,11.2v22.5c0,6.2,5,11.2,11.2,11.2s11.2-5,11.2-11.2v-22.5C196.1,519.3,191.1,514.2,184.9,514.2"/>
</g>
</svg>
