<?xml version="1.0" encoding="utf-8"?>
<!-- Generator: Adobe Illustrator 26.2.1, SVG Export Plug-In . SVG Version: 6.00 Build 0)  -->
<svg version="1.1" id="Layer_1" xmlns="http://www.w3.org/2000/svg" xmlns:xlink="http://www.w3.org/1999/xlink" x="0px" y="0px"
	 viewBox="0 0 500 500" style="enable-background:new 0 0 500 500;" xml:space="preserve">
<style type="text/css">
	.st0{fill:#F96332;}
</style>
<g>
	<path class="st0" d="M365.1,220.8c-7.3,0-14.5,0.9-21.5,2.7l-25.8-72.7c3.3-1.2,6.8-1.8,10.3-1.8c6.8,0,13.3,2.7,18.1,7.6
		c1.7,1.8,4.1,2.7,6.6,2.7s4.8-1,6.6-2.7c1.7-1.8,2.6-4.2,2.6-6.6c0-2.5-1.1-4.8-2.8-6.6c-8.2-8.3-19.4-13-31.1-13
		c-9.6,0-19,2.8-27,8c-3.5,2.3-5,6.7-3.6,10.7l11.3,31.7H190.7l-4.3-12.6H205c5.1,0,9.3-4.2,9.3-9.3s-4.2-9.3-9.3-9.3h-51.6
		c-5.1,0-9.3,4.2-9.3,9.3s4.2,9.3,9.3,9.3h13.2l7.3,21.1l-35.1,45.5c-14.4-9.1-31.1-14-48.1-14c-23.6,0-46.3,9.2-63.2,25.6
		c-17,16.4-26.9,38.8-27.7,62.3c-0.8,23.6,7.6,46.6,23.4,64.1s37.8,28.3,61.3,29.9s46.8-5.9,64.9-21.1s29.6-36.8,32-60.2h45.1
		c0.9,0,1.8-0.2,2.7-0.5h0.3c0.2,0,0.4,0,0.6-0.2l0.8-0.4l0,0c0.4-0.2,0.7-0.4,1.1-0.7l0.6-0.4c0.5-0.5,1-1,1.4-1.5l84.5-110
		l7.8,22.1c-27.1,13-46,38.6-50.5,68.3s6,59.7,28,80.2c22,20.4,52.7,28.7,82,22s53.4-27.5,64.3-55.4c10.9-28,7.3-59.6-9.6-84.4
		C423.3,235.5,395.2,220.7,365.1,220.8L365.1,220.8z M365.1,384.3c-21.9,0-42.5-9.9-56.3-26.9c-13.7-17-19-39.3-14.5-60.7
		c4.6-21.4,18.6-39.5,38.1-49.4l24,67.6c1.2,3.7,4.7,6.3,8.6,6.4c1,0,2.1-0.2,3.1-0.5c2.3-0.8,4.3-2.5,5.3-4.8
		c1.1-2.2,1.2-4.8,0.4-7.1l-24-67.8c5-1.1,10.1-1.6,15.3-1.6c25.4,0.6,48.7,14.6,61.2,36.7s12.5,49.2,0,71.4
		C413.8,369.7,390.6,383.6,365.1,384.3L365.1,384.3z M90.6,384.3L90.6,384.3c-25.4-0.6-48.7-14.6-61.2-36.7s-12.5-49.2,0-71.4
		s35.8-36.1,61.2-36.7c12.9,0,25.5,3.5,36.6,10.1l-43.8,56.6c-2.3,2.8-2.8,6.6-1.2,9.9c1.5,3.3,4.8,5.3,8.4,5.3h71.8
		c-2.3,17.4-10.8,33.4-24,45C125.1,377.9,108.1,384.3,90.6,384.3L90.6,384.3z M301,199.5l-71.6,93l-32.2-93H301z M162.3,302.7h-52.7
		l32.6-41.7l0,0C153.3,272.3,160.4,287,162.3,302.7L162.3,302.7z M213.1,302.7h-31.9c-2.3-21.5-12.2-41.5-28-56.4l28-35.7
		L213.1,302.7z"/>
</g>
</svg>
