<?xml version="1.0" encoding="utf-8"?>
<!-- Generator: Adobe Illustrator 26.2.1, SVG Export Plug-In . SVG Version: 6.00 Build 0)  -->
<svg version="1.1" id="Layer_1" xmlns="http://www.w3.org/2000/svg" xmlns:xlink="http://www.w3.org/1999/xlink" x="0px" y="0px"
	 viewBox="0 0 500 500" style="enable-background:new 0 0 500 500;" xml:space="preserve">
<style type="text/css">
	.st0{fill:#F96332;}
</style>
<g>
	<path class="st0" d="M310.1,500H121.3V348.9H73.8V500H3V128.5L156.6,0l153.6,125.7L310.1,500z M139.5,481.8H292V134.4L156.6,23.6
		L21.2,137v344.8h34.4V330.7h83.8L139.5,481.8L139.5,481.8z M264.2,447.5h-83.8V330.7h83.8V447.5z M198.5,429.3H246v-80.4h-47.5
		V429.3z M264.2,289.9h-83.8V173.2h83.8V289.9z M198.5,271.8H246v-80.3h-47.5V271.8z M139.5,289.9H55.7V173.2h83.8V289.9
		L139.5,289.9z M73.8,271.8h47.5v-80.3H73.8L73.8,271.8z"/>
</g>
</svg>
