<?xml version="1.0" encoding="utf-8"?>
<!-- Generator: Adobe Illustrator 26.2.1, SVG Export Plug-In . SVG Version: 6.00 Build 0)  -->
<svg version="1.1" id="Layer_1" xmlns="http://www.w3.org/2000/svg" xmlns:xlink="http://www.w3.org/1999/xlink" x="0px" y="0px"
	 viewBox="0 0 500 500" style="enable-background:new 0 0 500 500;" xml:space="preserve">
<style type="text/css">
	.st0{fill:#F96332;}
</style>
<g>
	<path class="st0" d="M11.1,105.2c-5.2,0-9.5,4.2-9.5,9.5v181.7c0,5.2,4.2,9.5,9.5,9.5h155.1c2.5,0,5-0.9,6.8-2.7
		c1.8-1.8,2.8-4.2,2.8-6.8c0-2.5-1-5-2.8-6.8s-4.3-2.8-6.8-2.7H20.6V124.1h242.2v13c-7.9,3.2-14.8,7.4-20,12.9
		c-5.5,5.7-9.2,13.1-9.2,21.3c0,1.8,0.2,3.5,0.4,5.3l-15.4-8.3c0-0.2,0-0.3,0-0.5c0-11.6-9.4-21.1-20.9-21.1
		c-11.6,0-20.9,9.4-20.9,21.1c0,3.5,0.9,6.8,2.5,9.7l-31.4,44.7c-1-0.1-2-0.3-3-0.3c-3.4,0-6.7,0.9-9.5,2.4l-25.9-18.8
		c0.2-1.1,0.3-2.1,0.3-3.3c0-11.6-9.4-21.1-20.9-21.1c-11.6,0-20.9,9.4-20.9,21.1c0,2,0.4,4,0.9,5.8l-36.3,34.3
		c-1.9,1.7-3.1,4.1-3.2,6.7c-0.1,2.6,0.8,5.1,2.6,6.9c1.8,1.9,4.2,2.9,6.8,3c2.6,0,5-1,6.9-2.8L81.8,222c2.2,0.8,4.6,1.3,7.1,1.3
		c3.4,0,6.6-0.9,9.5-2.4l25.9,18.8c-0.2,1.1-0.3,2.1-0.3,3.2c0,11.6,9.4,21.1,20.9,21.1c11.6,0,20.9-9.4,20.9-21.1
		c0-3.5-0.9-6.8-2.5-9.7l31.4-44.7c1,0.1,2,0.3,3,0.3c4.5,0,8.6-1.4,12-3.9l30.1,16.2c2,1.1,4.4,1.4,6.6,0.9
		c1.6,1.9,3.4,3.8,5.2,5.7c-13.5,9.1-25.4,21.1-35.4,34.3c-20.8,27.6-33.8,60.1-33.8,85.8s14.2,48.7,35.7,64.7s50.7,25.5,82.6,25.5
		s61-9.5,82.6-25.5s35.7-38.9,35.7-64.7c0-25.7-13-58.2-33.8-85.8c-10-13.2-21.9-25.3-35.4-34.3c11-11,18.1-23.8,18.1-36.6
		c0-8.2-3.8-15.6-9.2-21.3c-5.5-5.7-12.7-10.1-21-13.3c-4.5-1.8-9.6,0.1-11.8,4.4c-4,7.4-14.9,16.7-25.2,16.7c-6.8,0-13.9-4-19-8.9
		v-34.2c0-5.2-4.2-9.5-9.5-9.5L11.1,105.2z M264.4,158.2c8.1,10,20.6,18.5,36.3,18.5c15.7,0,28.2-8.5,36.3-18.5c2.8,1.7,6.3,3.2,8,5
		c3,3.1,4,5.7,4,8.1c0,4.4-6.3,17.5-16.8,27c-9.9-4.1-20.4-6.5-31.5-6.5c-11,0-21.6,2.4-31.5,6.5c-10.5-9.5-16.9-22.6-16.9-27
		c0-2.4,1-5,4-8.1C258.1,161.5,261.6,159.9,264.4,158.2L264.4,158.2z M300.8,210.8c25.7,0,50.8,18.2,69.4,42.9s30,55.6,30,74.4
		s-10.2,36.2-28,49.4c-17.8,13.2-43.1,21.8-71.3,21.8s-53.5-8.5-71.3-21.8c-17.8-13.2-28-30.6-28-49.4s11.4-49.7,30-74.4
		C250,229,275.1,210.8,300.8,210.8L300.8,210.8z M300.6,224.5c-5.2,0.1-9.4,4.4-9.3,9.6v13.2c-8.2,1.1-15.6,3.6-21.8,7.3
		c-8.6,5.2-15.5,13.6-15.5,24.1c0,10.3,6.6,18.7,14.8,24.3c8.2,5.6,18.7,9.4,30.4,11.4c9.6,1.7,17.9,4.9,23,8.4s6.5,6.4,6.5,8.6
		c0,2-1.4,4.9-6.4,7.8s-12.7,5.2-21.5,5.2c-13.4,0-24.1-5.8-26.8-9.9c-1.4-2.2-3.5-3.7-6-4.2s-5.1,0-7.2,1.4s-3.6,3.6-4.1,6.1
		s0.1,5.1,1.5,7.2c6.8,10.3,19,16,33.1,17.8V376c0,2.5,0.9,5,2.7,6.8c1.8,1.8,4.2,2.8,6.8,2.8c2.5,0,5-1,6.8-2.8s2.8-4.3,2.7-6.8
		v-13.2c8.1-1.1,15.6-3.6,21.8-7.3c8.6-5.2,15.5-13.6,15.5-24.1c0-10.3-6.6-18.6-14.8-24.3c-8.2-5.6-18.7-9.4-30.4-11.4
		c-9.6-1.7-17.9-4.9-23-8.4s-6.5-6.4-6.5-8.6c0-2,1.4-4.9,6.4-7.8c4.9-3,12.7-5.2,21.5-5.2c13.4,0,24.1,5.8,26.8,9.9
		c2.9,4.4,8.8,5.5,13.1,2.7c4.4-2.9,5.6-8.8,2.7-13.1c-6.8-10.3-19-16-33.1-17.8v-13.2c0-2.6-1-5-2.8-6.8
		C305.7,225.4,303.2,224.4,300.6,224.5L300.6,224.5z"/>
</g>
</svg>
